<svg width="39" height="43" viewBox="0 0 39 43" fill="none" xmlns="http://www.w3.org/2000/svg">
<g clip-path="url(#clip0_1_1123)">
<path d="M22.74 41.62H4.38C2.51 41.62 1 40.1 1 38.24V4.38C1 2.52 2.52 1 4.38 1H27.16C29.03 1 30.54 2.52 30.54 4.38V16.29" stroke="#004A80" stroke-width="2" stroke-linecap="round" stroke-linejoin="round"/>
<path d="M6.32812 10.8199H22.3281" stroke="#004A80" stroke-width="2" stroke-linecap="round" stroke-linejoin="round"/>
<path d="M6.32812 16.59H22.3281" stroke="#004A80" stroke-width="2" stroke-linecap="round" stroke-linejoin="round"/>
<path d="M6.32812 23.7999H12.2881" stroke="#004A80" stroke-width="2" stroke-linecap="round" stroke-linejoin="round"/>
<path d="M30.1781 37.93C34.5136 37.93 38.0281 34.4154 38.0281 30.08C38.0281 25.7445 34.5136 22.23 30.1781 22.23C25.8427 22.23 22.3281 25.7445 22.3281 30.08C22.3281 34.4154 25.8427 37.93 30.1781 37.93Z" fill="#E85B21"/>
<path d="M30.1758 34.1498C29.6258 34.1498 29.1758 33.6998 29.1758 33.1498V27.0098C29.1758 26.4598 29.6258 26.0098 30.1758 26.0098C30.7258 26.0098 31.1758 26.4598 31.1758 27.0098V33.1498C31.1758 33.6998 30.7258 34.1498 30.1758 34.1498Z" fill="white"/>
<path d="M33.2477 31.0797H27.0977C26.5477 31.0797 26.0977 30.6297 26.0977 30.0797C26.0977 29.5297 26.5477 29.0797 27.0977 29.0797H33.2477C33.7977 29.0797 34.2477 29.5297 34.2477 30.0797C34.2477 30.6297 33.7977 31.0797 33.2477 31.0797Z" fill="white"/>
</g>
<defs>
<clipPath id="clip0_1_1123">
<rect width="38.03" height="42.62" fill="white"/>
</clipPath>
</defs>
</svg>
