<svg width="35" height="38" viewBox="0 0 35 38" fill="none" xmlns="http://www.w3.org/2000/svg">
<g clip-path="url(#clip0_1_1112)">
<path d="M30.7659 24.3936V27.5007C30.7659 30.9343 27.6587 35.2843 22.9823 35.2843H19.8751" stroke="#004A80" stroke-width="2" stroke-linecap="round" stroke-linejoin="round"/>
<path d="M18.3169 36.8432H16.7581C15.8944 36.8432 15.1992 36.1481 15.1992 35.2844C15.1992 34.4207 15.8944 33.7256 16.7581 33.7256H18.3169C19.1806 33.7256 19.8757 34.4207 19.8757 35.2844C19.8757 36.1481 19.1806 36.8432 18.3169 36.8432Z" stroke="#004A80" stroke-width="2" stroke-linecap="round" stroke-linejoin="round"/>
<path d="M5.86719 13.5028V11.944C5.86719 5.92984 10.7438 1.05322 16.7579 1.05322H18.3168C24.3309 1.05322 29.2075 5.92984 29.2075 11.944V13.5028" stroke="#004A80" stroke-width="2" stroke-linecap="round" stroke-linejoin="round"/>
<path d="M3.81282 13.3344H7.62564V26.6687H3.81282C1.70629 26.6687 0 24.9624 0 22.8559V17.1366C0 15.0406 1.70629 13.3344 3.81282 13.3344Z" fill="#E85B21"/>
<path d="M31.1878 26.6683H27.375V13.334H31.1878C33.2944 13.334 35.0006 15.0403 35.0006 17.1468V22.866C35.0006 24.9726 33.2944 26.6789 31.1878 26.6789V26.6683Z" fill="#E85B21"/>
</g>
<defs>
<clipPath id="clip0_1_1112">
<rect width="35" height="37.8965" fill="white"/>
</clipPath>
</defs>
</svg>
