<svg width="41" height="36" viewBox="0 0 41 36" fill="none" xmlns="http://www.w3.org/2000/svg">
<g clip-path="url(#clip0_1_1139)">
<path d="M23.02 34.36C32.2321 34.36 39.7 26.8921 39.7 17.68C39.7 8.46789 32.2321 1 23.02 1C13.8079 1 6.34 8.46789 6.34 17.68C6.34 26.8921 13.8079 34.36 23.02 34.36Z" stroke="#004A80" stroke-width="2" stroke-linecap="round" stroke-linejoin="round"/>
<path d="M27.7084 11.6498H25.7784C25.2784 11.6498 24.9784 12.1798 25.2184 12.6198C25.3384 12.8398 25.4384 13.0898 25.5084 13.3498C25.5884 13.6298 25.8384 13.8198 26.1284 13.8198H27.7084C28.0584 13.8198 28.3484 14.1098 28.3484 14.4598C28.3484 14.8098 28.0584 15.0998 27.7084 15.0998H26.1684C25.8784 15.0998 25.6184 15.2898 25.5484 15.5698C25.1284 17.1998 23.7384 18.2898 21.6984 18.6898C21.1884 18.7898 21.0084 19.4298 21.3784 19.7898C22.6684 21.0198 23.9984 22.4198 25.3484 23.8698C25.7384 24.2798 25.4484 24.9698 24.8584 24.9698H24.5284C23.9084 24.9698 23.3284 24.7298 22.8984 24.2798C21.4084 22.7298 19.8784 21.0798 18.0584 19.3898C17.8184 19.1598 17.6584 18.8298 17.6584 18.4898H17.6684C17.6684 17.8198 18.2184 17.2598 18.8984 17.2598H19.0884C20.7884 17.2598 21.9684 16.8598 22.5984 16.1898C22.9884 15.7798 22.6684 15.1098 22.0984 15.1098H18.3084C17.9584 15.1098 17.6684 14.8198 17.6684 14.4498C17.6684 14.0998 17.9584 13.8098 18.3084 13.8098H21.5184C22.1884 13.8098 22.4384 12.8798 21.8384 12.5798C21.2384 12.2798 20.4184 12.1398 19.4084 12.1398H18.5484C18.0484 12.1398 17.6484 11.7398 17.6484 11.2398C17.6484 10.7398 18.0484 10.3398 18.5484 10.3398H27.6584C28.0084 10.3398 28.2984 10.6298 28.2984 10.9798C28.2984 11.3298 28.0084 11.6198 27.6584 11.6198L27.6784 11.5998L27.7084 11.6498Z" fill="#E4511E"/>
<path d="M20.35 34.14C19.48 34.28 18.59 34.35 17.68 34.35C8.47 34.35 1 26.89 1 17.68C1 8.47 8.47 1 17.68 1C18.59 1 19.48 1.07 20.35 1.21" stroke="#004A80" stroke-width="2" stroke-linecap="round" stroke-linejoin="round"/>
</g>
<defs>
<clipPath id="clip0_1_1139">
<rect width="40.69" height="35.35" fill="white"/>
</clipPath>
</defs>
</svg>
