<svg width="31" height="32" viewBox="0 0 31 32" fill="none" xmlns="http://www.w3.org/2000/svg">
<path d="M6.14159 4.29642L4.20703 4.16211L4.33184 6.10602C4.38038 6.28274 4.51906 6.42411 4.6924 6.46652L5.71169 6.73514C5.80183 6.75634 5.88504 6.80582 5.94744 6.87651L11.3698 12.7789L12.6733 11.45L6.9806 5.85861C6.92512 5.80206 6.88352 5.73844 6.86272 5.66775L6.48829 4.62158C6.43282 4.46607 6.30801 4.3459 6.14853 4.30348L6.14159 4.29642Z" fill="#EC6625"/>
<path d="M16.0426 19.2707L19.0335 16.2217C19.514 15.7318 20.2984 15.7318 20.7789 16.2217L29.1141 24.7189C30.1584 25.7835 30.1535 27.508 29.1141 28.5676L28.1629 29.5373C27.1185 30.602 25.427 30.597 24.3876 29.5373L16.0524 21.0401C15.5719 20.5503 15.5719 19.7505 16.0524 19.2607L16.0426 19.2707Z" stroke="#EC6625" stroke-width="2" stroke-linecap="round" stroke-linejoin="round"/>
<path d="M19.7148 19.8457L26.517 26.7802" stroke="#EC6625" stroke-width="2" stroke-linecap="round" stroke-linejoin="round"/>
<path d="M10.7028 22.046L21.6445 10.8915C23.1769 11.1884 24.8272 10.7289 26.0129 9.52017C27.3442 8.16297 27.7464 6.21199 27.2194 4.49429L24.6122 7.15214C24.2794 7.49144 23.7316 7.49144 23.3919 7.15214L21.4088 5.13047C21.0759 4.79117 21.0759 4.23274 21.4088 3.88637L24.0159 1.22852C22.331 0.691296 20.4242 1.10128 19.0859 2.45848C17.9002 3.66724 17.4495 5.3496 17.7407 6.9118L6.79903 18.0663C5.26663 17.7694 3.61636 18.2289 2.43066 19.4376C1.09935 20.7948 0.697185 22.7458 1.22416 24.4635L3.83131 21.8057C4.16414 21.4664 4.71192 21.4664 5.05168 21.8057L7.03478 23.8273C7.36761 24.1666 7.36761 24.7251 7.03478 25.0714L4.42763 27.7293C6.11257 28.2665 8.01939 27.8565 9.35764 26.4993C10.5433 25.2906 10.994 23.6082 10.7028 22.046Z" stroke="#004A80" stroke-width="2" stroke-linecap="round" stroke-linejoin="round"/>
</svg>
