<svg width="24" height="33" viewBox="0 0 24 33" fill="none" xmlns="http://www.w3.org/2000/svg">
<path d="M11.725 32.45C10.345 32.45 8.965 32.3 7.585 32C6.235 31.7 4.96 31.28 3.76 30.74C2.59 30.2 1.585 29.555 0.745 28.805L2.635 24.44C4.045 25.49 5.485 26.285 6.955 26.825C8.455 27.335 10.015 27.59 11.635 27.59C13.585 27.59 15.1 27.11 16.18 26.15C17.29 25.16 17.845 23.84 17.845 22.19C17.845 20.51 17.32 19.16 16.27 18.14C15.22 17.09 13.78 16.565 11.95 16.565C10.66 16.565 9.475 16.82 8.395 17.33C7.345 17.81 6.4 18.56 5.56 19.58H1.735V0.274998H21.445V5.045H7.225V15.125H5.83C6.61 14.075 7.645 13.265 8.935 12.695C10.255 12.125 11.725 11.84 13.345 11.84C15.385 11.84 17.155 12.26 18.655 13.1C20.155 13.94 21.325 15.125 22.165 16.655C23.005 18.155 23.425 19.925 23.425 21.965C23.425 24.035 22.945 25.865 21.985 27.455C21.055 29.015 19.705 30.245 17.935 31.145C16.195 32.015 14.125 32.45 11.725 32.45Z" fill="#F26624"/>
</svg>
