<svg width="25" height="33" viewBox="0 0 25 33" fill="none" xmlns="http://www.w3.org/2000/svg">
<g clip-path="url(#clip0_1_1348)">
<path d="M23.9625 12.0327L20.8341 6.42897C20.3115 5.49387 19.3008 4.94382 18.2351 5.0057L11.8269 5.39761C10.8712 5.45262 10.0118 6.00267 9.55108 6.84151L1.0321 22.4081C0.296403 23.7557 0.791452 25.4471 2.13909 26.1897L11.6757 31.4083C13.0233 32.144 14.7147 31.649 15.4573 30.3013L23.9763 14.7279C24.4369 13.8891 24.4301 12.8715 23.9625 12.0327V12.0327Z" stroke="#004A80" stroke-width="2" stroke-linecap="round" stroke-linejoin="round"/>
<path d="M16.9348 12.5684C18.1006 12.5684 19.0456 11.6233 19.0456 10.4575C19.0456 9.29173 18.1006 8.34668 16.9348 8.34668C15.769 8.34668 14.824 9.29173 14.824 10.4575C14.824 11.6233 15.769 12.5684 16.9348 12.5684Z" stroke="#004A80" stroke-width="2" stroke-linecap="round" stroke-linejoin="round"/>
<path d="M18.5506 10.2036C18.5506 10.2036 23.4942 7.7352 24.2437 1.40269C24.3124 0.818259 23.6111 0.460724 23.1711 0.845762C22.2497 1.65709 21.0533 3.27976 20.6064 6.42882" stroke="#004A80" stroke-width="2" stroke-linecap="round" stroke-linejoin="round"/>
<path d="M7.69474 18.5922C7.57098 18.0903 7.69474 17.5196 8.03853 16.8802C8.38231 16.2408 8.79485 15.8626 9.28303 15.6907C9.7712 15.5188 10.28 15.5876 10.8163 15.8763C11.3526 16.1651 11.6758 16.5639 11.7995 17.0727C11.9233 17.5815 11.8064 18.1453 11.4695 18.7641C11.1326 19.3829 10.7063 19.8024 10.2181 19.9674C9.72995 20.1324 9.22115 20.0705 8.68484 19.7817C8.14854 19.493 7.82538 19.0942 7.70162 18.5854H7.69474V18.5922ZM9.64056 18.7504C9.77808 18.6404 9.94309 18.4066 10.1425 18.0491C10.3419 17.6915 10.4313 17.444 10.445 17.2652C10.4588 17.0796 10.4038 16.9558 10.2663 16.8802C10.1287 16.8046 9.9981 16.8252 9.85371 16.9421C9.70932 17.0521 9.5443 17.279 9.35866 17.6228C9.17302 17.9666 9.06301 18.2416 9.04238 18.4204C9.02863 18.5991 9.08363 18.7229 9.21427 18.7985C9.35866 18.8741 9.49618 18.8604 9.63369 18.7573H9.64056V18.7504ZM7.11719 22.3051L14.3367 17.9459L15.6912 18.6885L8.48545 23.0546L7.11719 22.3051ZM11.0501 23.8796C10.9332 23.3777 11.0501 22.807 11.4007 22.1745C11.7514 21.5419 12.1502 21.1569 12.6384 20.985C13.1197 20.8131 13.6285 20.875 14.1648 21.1637C14.7011 21.4525 15.0311 21.8582 15.148 22.3532C15.2649 22.8552 15.148 23.419 14.8042 24.0447C14.4604 24.6703 14.041 25.0829 13.5597 25.2548C13.0784 25.4267 12.5627 25.3648 12.0264 25.0691C11.4901 24.7735 11.167 24.3816 11.057 23.8796H11.0501ZM12.9821 24.024C13.1265 23.914 13.2916 23.6803 13.4841 23.3296C13.6766 22.9789 13.7729 22.7245 13.7866 22.5458C13.8004 22.3601 13.7454 22.2364 13.6078 22.1607C13.4703 22.0851 13.3397 22.1057 13.1953 22.2226C13.0509 22.3395 12.8859 22.5595 12.7002 22.9033C12.5146 23.2471 12.4046 23.5221 12.384 23.7009C12.3633 23.8796 12.4252 24.0034 12.5559 24.079C12.6865 24.1547 12.8309 24.1409 12.9753 24.0309L12.9821 24.024Z" fill="#EC6625"/>
</g>
<defs>
<clipPath id="clip0_1_1348">
<rect width="25" height="32.4395" fill="white"/>
</clipPath>
</defs>
</svg>
