<svg width="26" height="37" viewBox="0 0 26 37" fill="none" xmlns="http://www.w3.org/2000/svg">
<path d="M15.0081 13.3135H9.0957C5.10688 13.3135 1.87109 16.6122 1.87109 20.6786V26.6755" stroke="#004A80" stroke-width="2" stroke-linecap="round" stroke-linejoin="round"/>
<path d="M14.2109 34.4059H24.9994V20.679C24.9994 16.7418 21.9724 13.5343 18.1625 13.3291" stroke="#004A80" stroke-width="2" stroke-linecap="round" stroke-linejoin="round"/>
<path d="M24.9995 26.2646H21.0704" stroke="#004A80" stroke-width="2" stroke-linecap="round" stroke-linejoin="round"/>
<path d="M21.0704 19.5996V34.4058" stroke="#004A80" stroke-width="2" stroke-linecap="round" stroke-linejoin="round"/>
<path d="M15.0078 30.1113H16.0963C17.6621 30.1113 19.0712 31.0842 19.6527 32.5664L20.279 34.1549" stroke="#004A80" stroke-width="2" stroke-linecap="round" stroke-linejoin="round"/>
<path d="M14.077 1H12.7946C10.6946 1 8.99219 2.73551 8.99219 4.87637V8.44871C8.99219 10.5896 10.6946 12.3251 12.7946 12.3251H14.077C16.177 12.3251 17.8794 10.5896 17.8794 8.44871V4.87637C17.8794 2.73551 16.177 1 14.077 1Z" stroke="#004A80" stroke-width="2" stroke-linecap="round" stroke-linejoin="round"/>
<path d="M13.9357 35.7044L18.0363 13.3203H15.6431L1 27.5641V32.0561C1 33.9107 3.31873 35.4232 5.13793 35.4688L13.9357 35.7044Z" stroke="#EC6625" stroke-width="2" stroke-linecap="round" stroke-linejoin="round"/>
</svg>
