<svg width="36" height="14" viewBox="0 0 36 14" fill="none" xmlns="http://www.w3.org/2000/svg">
<path d="M0 0H36L32.25 7L36 14H0L3.75 7L0 0Z" fill="url(#paint0_linear_1_1380)"/>
<path d="M7.04644 10.1328V3.78781H8.09044L11.5374 8.17081H11.2944V3.78781H12.5994V10.1328H11.5554L8.11744 5.74981H8.35144V10.1328H7.04644ZM13.8843 10.1328V3.78781H18.2943V4.87681H15.2253V6.36181H18.0783V7.45981H15.2253V9.04381H18.2943V10.1328H13.8843ZM21.054 10.1328L18.804 3.78781H20.253L21.864 8.68381H21.477L23.232 3.78781H24.258L25.869 8.68381H25.509L27.219 3.78781H28.578L26.31 10.1328H25.167L23.61 5.62381H23.817L22.206 10.1328H21.054Z" fill="white"/>
<defs>
<linearGradient id="paint0_linear_1_1380" x1="0" y1="0" x2="-9.23926e-10" y2="15.9727" gradientUnits="userSpaceOnUse">
<stop stop-color="#F58820"/>
<stop offset="1" stop-color="#B02A30"/>
</linearGradient>
</defs>
</svg>
