<svg width="32" height="48" viewBox="0 0 32 48" fill="none" xmlns="http://www.w3.org/2000/svg">
<g clip-path="url(#clip0_1_288)">
<path d="M26.4786 1.0498H4.56859C2.59859 1.0498 1.05859 2.5998 1.05859 4.5598V43.0598C1.05859 45.0298 2.60859 46.5698 4.56859 46.5698H26.4786C28.4486 46.5698 29.9886 45.0198 29.9886 43.0598V4.5698C29.9886 2.5998 28.4386 1.0598 26.4786 1.0598V1.0498Z" stroke="#0B4B7F" stroke-width="2" stroke-linecap="round" stroke-linejoin="round"/>
<path d="M1.19141 6.81055H29.9914" stroke="#0B4B7F" stroke-width="2" stroke-linecap="round" stroke-linejoin="round"/>
<path d="M1.19141 42.0801H29.9914" stroke="#0B4B7F" stroke-width="2" stroke-linecap="round" stroke-linejoin="round"/>
<path d="M15.52 15.5195C10.32 15.5195 6.25 19.7295 6.25 24.7895C6.25 29.8495 10.46 34.0595 15.52 34.0595C20.58 34.0595 24.79 29.8495 24.79 24.7895C24.79 19.7295 20.72 15.5195 15.52 15.5195ZM20.44 22.5395L15.24 27.7395C14.96 28.0195 14.68 28.0195 14.4 28.0195C14.12 28.0195 13.84 27.8795 13.56 27.7395L10.47 24.6495C10.05 24.2295 10.05 23.5295 10.47 22.9595C10.89 22.5395 11.59 22.5395 12.16 22.9595L14.41 25.2095L18.77 20.8495C19.19 20.4295 19.89 20.4295 20.46 20.8495C20.88 21.4095 20.88 22.1095 20.46 22.5395H20.44Z" fill="#F48120"/>
</g>
<defs>
<clipPath id="clip0_1_288">
<rect width="31.05" height="47.63" fill="white"/>
</clipPath>
</defs>
</svg>
