<svg width="41" height="42" viewBox="0 0 41 42" fill="none" xmlns="http://www.w3.org/2000/svg">
<path d="M35.1637 26.9766V30.4388C35.1637 34.2643 31.6091 39.0942 26.2772 39.0942H22.7227" stroke="#004A80" stroke-width="2" stroke-linecap="round" stroke-linejoin="round"/>
<path d="M20.9335 40.8372H19.1562C18.1688 40.8372 17.3789 40.0571 17.3789 39.1061C17.3789 38.1444 18.1798 37.375 19.1562 37.375H20.9335C21.9209 37.375 22.7108 38.1551 22.7108 39.1061C22.7108 40.0678 21.9099 40.8372 20.9335 40.8372Z" stroke="#004A80" stroke-width="2" stroke-linecap="round" stroke-linejoin="round"/>
<path d="M6.70324 14.8595V13.1284C6.70324 6.42838 12.2765 1 19.1552 1H20.9325C27.8113 1 33.3845 6.42838 33.3845 13.1284V14.8595" stroke="#004A80" stroke-width="2" stroke-linecap="round" stroke-linejoin="round"/>
<path d="M4.35546 14.6671H8.71092V29.5097H4.35546C1.95283 29.5097 0 27.6076 0 25.2674V18.9094C0 16.5692 1.95283 14.6671 4.35546 14.6671Z" fill="#F58220"/>
<path d="M35.6563 29.5098H31.3008V14.6672L35.6563 14.6672C38.0589 14.6672 40.0117 16.5693 40.0117 18.9095V25.2675C40.0117 27.6077 38.0589 29.5098 35.6563 29.5098Z" fill="#F58220"/>
</svg>
