<svg width="99" height="38" viewBox="0 0 99 38" fill="none" xmlns="http://www.w3.org/2000/svg">
<path d="M98.5 7V32" stroke="#CBCDCE" stroke-linecap="square"/>
<g clip-path="url(#clip0_1_1042)">
<path d="M11.58 30V25.41H1.5V23.61L11.97 8.85H14.01V23.4H17.25V25.41H14.01V30H11.58ZM11.58 23.4V11.79H12.24L3.54 24.03V23.4H11.58ZM19.8783 30V26.94H22.9383V30H19.8783ZM34.5045 30.27C31.9445 30.27 29.9645 29.37 28.5645 27.57C27.1845 25.75 26.4945 23.21 26.4945 19.95C26.4945 17.51 26.8445 15.45 27.5445 13.77C28.2445 12.07 29.2445 10.78 30.5445 9.9C31.8445 9.02 33.4145 8.58 35.2545 8.58C36.3545 8.58 37.4645 8.81 38.5845 9.27C39.7045 9.71 40.6245 10.33 41.3445 11.13L40.4445 13.05C39.6845 12.27 38.8545 11.7 37.9545 11.34C37.0545 10.96 36.1445 10.77 35.2245 10.77C33.1845 10.77 31.6145 11.5 30.5145 12.96C29.4345 14.4 28.8945 16.57 28.8945 19.47V22.26H28.6245C28.7645 21.12 29.1045 20.14 29.6445 19.32C30.2045 18.48 30.9345 17.84 31.8345 17.4C32.7345 16.96 33.7345 16.74 34.8345 16.74C36.1145 16.74 37.2445 17.02 38.2245 17.58C39.2045 18.14 39.9745 18.93 40.5345 19.95C41.0945 20.95 41.3745 22.1 41.3745 23.4C41.3745 24.72 41.0845 25.9 40.5045 26.94C39.9245 27.98 39.1145 28.8 38.0745 29.4C37.0345 29.98 35.8445 30.27 34.5045 30.27ZM34.3245 28.17C35.2445 28.17 36.0545 27.98 36.7545 27.6C37.4745 27.2 38.0245 26.65 38.4045 25.95C38.8045 25.23 39.0045 24.41 39.0045 23.49C39.0045 22.57 38.8045 21.76 38.4045 21.06C38.0245 20.36 37.4745 19.81 36.7545 19.41C36.0545 19.01 35.2445 18.81 34.3245 18.81C33.4045 18.81 32.5945 19.01 31.8945 19.41C31.1945 19.81 30.6445 20.36 30.2445 21.06C29.8645 21.76 29.6745 22.57 29.6745 23.49C29.6745 24.41 29.8645 25.23 30.2445 25.95C30.6445 26.65 31.1945 27.2 31.8945 27.6C32.5945 27.98 33.4045 28.17 34.3245 28.17Z" fill="#282828"/>
<path fill-rule="evenodd" clip-rule="evenodd" d="M56.3967 29.7593C55.4776 30.2775 54.9473 29.9317 55.2119 28.9844L57.4028 21.1522L50.5133 15.9739C49.6803 15.3479 49.8828 14.7875 50.9641 14.72L59.9226 14.1743L63.2677 6.67815C63.6728 5.77395 64.3272 5.77395 64.7312 6.67815L68.0774 14.1743L77.0359 14.72C78.1172 14.7875 78.3197 15.3479 77.4867 15.9739L70.5983 21.1522L72.7881 28.9844C73.0516 29.9317 72.5235 30.2775 71.6033 29.7593L63.9995 25.4646L56.3967 29.7593Z" fill="#FAA61A"/>
</g>
<defs>
<clipPath id="clip0_1_1042">
<rect width="78" height="38" fill="white"/>
</clipPath>
</defs>
</svg>
