<svg width="16" height="23" viewBox="0 0 16 23" fill="none" xmlns="http://www.w3.org/2000/svg">
<path d="M7.68172 22.3C6.22172 22.3 4.82172 22.09 3.48172 21.67C2.14172 21.23 1.04172 20.63 0.181719 19.87L1.44172 16.96C2.38172 17.68 3.35172 18.21 4.35172 18.55C5.37172 18.89 6.44172 19.06 7.56172 19.06C8.92172 19.06 9.95172 18.79 10.6517 18.25C11.3517 17.71 11.7017 16.92 11.7017 15.88C11.7017 14.88 11.3517 14.13 10.6517 13.63C9.97172 13.11 8.97172 12.85 7.65172 12.85H4.23172V9.76H7.32172C8.46172 9.76 9.37172 9.48 10.0517 8.92C10.7317 8.36 11.0717 7.59 11.0717 6.61C11.0717 5.69 10.7517 4.99 10.1117 4.51C9.49172 4.03 8.59172 3.79 7.41172 3.79C5.29172 3.79 3.42172 4.51 1.80172 5.95L0.541719 3.07C1.40172 2.27 2.46172 1.65 3.72172 1.21C5.00172 0.769999 6.34172 0.549999 7.74172 0.549999C9.94172 0.549999 11.6617 1.05 12.9017 2.05C14.1617 3.03 14.7917 4.4 14.7917 6.16C14.7917 7.42 14.4317 8.51 13.7117 9.43C13.0117 10.33 12.0417 10.93 10.8017 11.23V10.87C12.2617 11.11 13.3917 11.71 14.1917 12.67C15.0117 13.61 15.4217 14.79 15.4217 16.21C15.4217 18.09 14.7317 19.58 13.3517 20.68C11.9717 21.76 10.0817 22.3 7.68172 22.3Z" fill="#EC6608"/>
</svg>
