<svg width="10" height="10" viewBox="0 0 10 10" fill="none" xmlns="http://www.w3.org/2000/svg">
<path fill-rule="evenodd" clip-rule="evenodd" d="M9.99911 5.30299C9.99753 5.4487 9.95388 5.58799 9.87768 5.69192L6.96172 9.62189C6.88473 9.73332 6.77759 9.79761 6.66489 9.79975C6.55218 9.80189 6.44266 9.74296 6.36329 9.63582C6.28392 9.52868 6.23948 9.38189 6.24106 9.22975C6.24265 9.07761 6.28948 8.93297 6.37123 8.82904L8.57764 5.85477H0.422632C-0.140877 5.86549 -0.140877 4.72121 0.422632 4.73192H8.57685L6.37202 1.76087C6.29345 1.65587 6.249 1.5123 6.249 1.36337C6.249 1.21337 6.29265 1.0698 6.37123 0.964804C6.45059 0.857661 6.55695 0.799805 6.66727 0.799805C6.77838 0.799805 6.88473 0.860876 6.96251 0.966946L9.87848 4.89692C9.95784 5.00406 10.0023 5.15192 9.99991 5.30406" fill="#282828"/>
</svg>
