<svg width="24" height="34" viewBox="0 0 24 34" fill="none" xmlns="http://www.w3.org/2000/svg">
<path d="M12.625 33.45C8.635 33.45 5.545 32.07 3.355 29.31C1.195 26.55 0.115 22.68 0.115 17.7C0.115 14.1 0.67 11.055 1.78 8.565C2.89 6.045 4.465 4.125 6.505 2.805C8.575 1.485 11.05 0.824998 13.93 0.824998C15.64 0.824998 17.335 1.14 19.015 1.77C20.695 2.37 22.135 3.24 23.335 4.38L21.4 8.7C20.29 7.68 19.09 6.93 17.8 6.45C16.51 5.94 15.205 5.685 13.885 5.685C11.185 5.685 9.13 6.6 7.72 8.43C6.31 10.26 5.605 12.99 5.605 16.62V19.995H5.065C5.305 18.465 5.815 17.16 6.595 16.08C7.375 14.97 8.38 14.13 9.61 13.56C10.84 12.96 12.205 12.66 13.705 12.66C15.565 12.66 17.215 13.095 18.655 13.965C20.095 14.835 21.22 16.035 22.03 17.565C22.87 19.095 23.29 20.85 23.29 22.83C23.29 24.87 22.825 26.7 21.895 28.32C20.995 29.91 19.75 31.17 18.16 32.1C16.57 33 14.725 33.45 12.625 33.45ZM12.31 28.86C13.42 28.86 14.395 28.62 15.235 28.14C16.075 27.66 16.72 26.985 17.17 26.115C17.65 25.215 17.89 24.195 17.89 23.055C17.89 21.885 17.65 20.865 17.17 19.995C16.72 19.125 16.075 18.45 15.235 17.97C14.395 17.46 13.42 17.205 12.31 17.205C11.2 17.205 10.225 17.46 9.385 17.97C8.545 18.45 7.885 19.125 7.405 19.995C6.925 20.865 6.685 21.885 6.685 23.055C6.685 24.195 6.925 25.215 7.405 26.115C7.885 26.985 8.545 27.66 9.385 28.14C10.225 28.62 11.2 28.86 12.31 28.86Z" fill="#F26624"/>
</svg>
