<svg width="91" height="12" viewBox="0 0 91 12" fill="none" xmlns="http://www.w3.org/2000/svg">
<path fill-rule="evenodd" clip-rule="evenodd" d="M3.69833 11.8796C3.23881 12.1387 2.97366 11.9658 3.10596 11.4922L4.20141 7.57611L0.756635 4.98694C0.340126 4.67395 0.441394 4.39377 0.98204 4.35998L5.46128 4.08715L7.13385 0.339075C7.33639 -0.113025 7.66361 -0.113025 7.8656 0.339075L9.53872 4.08715L14.018 4.35998C14.5586 4.39377 14.6599 4.67395 14.2434 4.98694L10.7991 7.57611L11.894 11.4922C12.0258 11.9658 11.7617 12.1387 11.3017 11.8796L7.49973 9.73228L3.69833 11.8796Z" fill="#FAA61A"/>
<path fill-rule="evenodd" clip-rule="evenodd" d="M22.6983 11.8796C22.2388 12.1387 21.9737 11.9658 22.106 11.4922L23.2014 7.57611L19.7566 4.98694C19.3401 4.67395 19.4414 4.39377 19.982 4.35998L24.4613 4.08715L26.1339 0.339075C26.3364 -0.113025 26.6636 -0.113025 26.8656 0.339075L28.5387 4.08715L33.018 4.35998C33.5586 4.39377 33.6599 4.67395 33.2434 4.98694L29.7991 7.57611L30.894 11.4922C31.0258 11.9658 30.7617 12.1387 30.3017 11.8796L26.4997 9.73228L22.6983 11.8796Z" fill="#FAA61A"/>
<path fill-rule="evenodd" clip-rule="evenodd" d="M41.6983 11.8796C41.2388 12.1387 40.9737 11.9658 41.106 11.4922L42.2014 7.57611L38.7566 4.98694C38.3401 4.67395 38.4414 4.39377 38.982 4.35998L43.4613 4.08715L45.1339 0.339075C45.3364 -0.113025 45.6636 -0.113025 45.8656 0.339075L47.5387 4.08715L52.018 4.35998C52.5586 4.39377 52.6599 4.67395 52.2434 4.98694L48.7991 7.57611L49.894 11.4922C50.0258 11.9658 49.7617 12.1387 49.3017 11.8796L45.4997 9.73228L41.6983 11.8796Z" fill="#FAA61A"/>
<path fill-rule="evenodd" clip-rule="evenodd" d="M60.6983 11.8796C60.2388 12.1387 59.9737 11.9658 60.106 11.4922L61.2014 7.57611L57.7566 4.98694C57.3401 4.67395 57.4414 4.39377 57.982 4.35998L62.4613 4.08715L64.1339 0.339075C64.3364 -0.113025 64.6636 -0.113025 64.8656 0.339075L66.5387 4.08715L71.018 4.35998C71.5586 4.39377 71.6599 4.67395 71.2434 4.98694L67.7991 7.57611L68.894 11.4922C69.0258 11.9658 68.7617 12.1387 68.3017 11.8796L64.4997 9.73228L60.6983 11.8796Z" fill="#CBCDCE"/>
<path fill-rule="evenodd" clip-rule="evenodd" d="M79.6983 11.8796C79.2388 12.1387 78.9737 11.9658 79.106 11.4922L80.2014 7.57611L76.7566 4.98694C76.3401 4.67395 76.4414 4.39377 76.982 4.35998L81.4613 4.08715L83.1339 0.339075C83.3364 -0.113025 83.6636 -0.113025 83.8656 0.339075L85.5387 4.08715L90.018 4.35998C90.5586 4.39377 90.6599 4.67395 90.2434 4.98694L86.7991 7.57611L87.894 11.4922C88.0258 11.9658 87.7617 12.1387 87.3017 11.8796L83.4997 9.73228L79.6983 11.8796Z" fill="#CBCDCE"/>
</svg>
