<svg width="24" height="34" viewBox="0 0 24 34" fill="none" xmlns="http://www.w3.org/2000/svg">
<path d="M12.005 33.45C9.815 33.45 7.715 33.135 5.705 32.505C3.695 31.845 2.045 30.945 0.755 29.805L2.645 25.44C4.055 26.52 5.51 27.315 7.01 27.825C8.54 28.335 10.145 28.59 11.825 28.59C13.865 28.59 15.41 28.185 16.46 27.375C17.51 26.565 18.035 25.38 18.035 23.82C18.035 22.32 17.51 21.195 16.46 20.445C15.44 19.665 13.94 19.275 11.96 19.275H6.83V14.64H11.465C13.175 14.64 14.54 14.22 15.56 13.38C16.58 12.54 17.09 11.385 17.09 9.915C17.09 8.535 16.61 7.485 15.65 6.765C14.72 6.045 13.37 5.685 11.6 5.685C8.42 5.685 5.615 6.765 3.185 8.925L1.295 4.605C2.585 3.405 4.175 2.475 6.065 1.815C7.985 1.155 9.995 0.824998 12.095 0.824998C15.395 0.824998 17.975 1.575 19.835 3.075C21.725 4.545 22.67 6.6 22.67 9.24C22.67 11.13 22.13 12.765 21.05 14.145C20 15.495 18.545 16.395 16.685 16.845V16.305C18.875 16.665 20.57 17.565 21.77 19.005C23 20.415 23.615 22.185 23.615 24.315C23.615 27.135 22.58 29.37 20.51 31.02C18.44 32.64 15.605 33.45 12.005 33.45Z" fill="#F26624"/>
</svg>
