<svg width="23" height="33" viewBox="0 0 23 33" fill="none" xmlns="http://www.w3.org/2000/svg">
<path d="M1.51 33V28.725L12.04 17.745C13.36 16.365 14.335 15.09 14.965 13.92C15.595 12.75 15.91 11.55 15.91 10.32C15.91 8.79 15.43 7.635 14.47 6.855C13.51 6.075 12.115 5.685 10.285 5.685C8.815 5.685 7.405 5.955 6.055 6.495C4.705 7.005 3.385 7.815 2.095 8.925L0.205 4.605C1.495 3.465 3.085 2.55 4.975 1.86C6.895 1.17 8.905 0.824998 11.005 0.824998C14.425 0.824998 17.05 1.59 18.88 3.12C20.71 4.65 21.625 6.84 21.625 9.69C21.625 11.67 21.16 13.56 20.23 15.36C19.3 17.13 17.86 18.99 15.91 20.94L7.135 29.715V28.185H22.885V33H1.51Z" fill="#F26624"/>
</svg>
