<svg width="16" height="22" viewBox="0 0 16 22" fill="none" xmlns="http://www.w3.org/2000/svg">
<path d="M1.35172 22V19.15L8.37172 11.83C9.25172 10.91 9.90172 10.06 10.3217 9.28C10.7417 8.5 10.9517 7.7 10.9517 6.88C10.9517 5.86 10.6317 5.09 9.99172 4.57C9.35172 4.05 8.42172 3.79 7.20172 3.79C6.22172 3.79 5.28172 3.97 4.38172 4.33C3.48172 4.67 2.60172 5.21 1.74172 5.95L0.481719 3.07C1.34172 2.31 2.40172 1.7 3.66172 1.24C4.94172 0.779999 6.28172 0.549999 7.68172 0.549999C9.96172 0.549999 11.7117 1.06 12.9317 2.08C14.1517 3.1 14.7617 4.56 14.7617 6.46C14.7617 7.78 14.4517 9.04 13.8317 10.24C13.2117 11.42 12.2517 12.66 10.9517 13.96L5.10172 19.81V18.79H15.6017V22H1.35172Z" fill="#EC6608"/>
</svg>
